<svg width="182" height="251" viewBox="0 0 182 251" fill="none" xmlns="http://www.w3.org/2000/svg">
<g clip-path="url(#clip0_83_74)">
<path d="M181.786 156.95C181.433 150.238 180.63 143.554 179.263 136.968C178.074 131.234 176.347 125.367 172.367 120.978C166.204 114.186 156.101 112.414 146.786 112.002C133.901 111.43 120.92 112.664 108.439 115.825C100.252 117.897 91.981 120.985 86.1759 126.958C80.9814 132.304 78.2445 139.498 76.7959 146.711C74.5895 157.703 75.1417 169.331 79.3055 179.775C83.4671 190.218 91.3769 199.381 101.697 204.387C108.11 207.498 115.654 208.96 122.527 206.979C129.549 204.953 135.183 199.467 138.272 193.019C142.25 184.716 145.164 169.989 134.903 164.806C130.081 162.373 124.17 163.121 119.079 164.968C117.914 165.391 116.717 165.904 115.944 166.851C114.004 169.23 117.157 172.181 118.086 174.348C119.344 177.28 119.831 180.558 119.034 183.671C117.637 189.127 111.462 193.44 105.947 191.718C101.764 190.413 99.2022 186.359 97.5241 182.418C93.6547 173.335 92.7886 162.158 98.8233 154.267C104.442 146.919 114.63 144.237 124.057 144.326C130.802 144.389 138.03 145.879 142.592 150.7C146.074 154.382 147.479 159.439 148.609 164.317C151.245 175.678 153.016 187.471 150.993 198.95C148.971 210.429 142.666 221.654 132.275 227.478C123.096 232.623 111.828 233.048 101.365 231.4C82.9215 228.495 70.3109 218.586 62.2864 202.515C47.6946 174.003 42.3702 140.503 46.4301 109.011C47.6513 99.5434 49.8014 90.1469 53.4824 81.2989C54.5542 78.7243 55.7538 76.2002 56.9945 73.6971C60.9851 65.6499 65.5278 57.7476 71.439 50.8625C77.5408 43.7568 85.0781 39.2865 92.8969 34.2404C105.575 26.0566 120.617 22.8284 135.94 23.4274C151.751 24.0453 159.427 34.0534 155.211 48.8912C155.079 49.3577 154.913 49.8537 154.514 50.1438C153.52 50.8667 152.15 49.6982 151.855 48.5234C150.485 43.0464 147.802 38.2609 142.218 35.7515C137.172 33.4817 130.804 34.0387 126.478 37.4287C122.838 40.2806 120.27 45.9888 121.829 50.5158C123.421 55.1373 128.176 59.5403 131.634 62.9807C135.711 67.037 140.914 70.2693 146.702 71.0196C170.73 74.1385 182.074 48.9164 175.933 29.9299C172.798 20.2328 165.791 14.0308 156.814 9.20328C128.124 -6.23136 86.2906 -0.29415 57.6138 12.6353C4.33067 36.6553 -0.816189 92.1897 0.0888956 142.976C0.363885 158.415 1.38156 173.245 6.405 188.043C9.49485 197.145 12.314 206.18 18.2577 213.998C21.0141 217.626 24.2101 220.902 27.4904 224.082C33.8758 230.269 42.5196 235.078 50.4012 239.39C58.9064 244.046 68.0114 247.839 77.6837 249.426C81.8908 250.117 86.1586 250.386 90.3982 250.851C103.459 250.924 116.732 251.595 129.609 249.31C165.869 242.879 179.921 207.195 181.708 175.342C182.052 169.22 182.104 163.073 181.781 156.95H181.786Z" fill="#EC783E"/>
</g>
<defs>
<clipPath id="clip0_83_74">
<rect width="182" height="251" fill="white"/>
</clipPath>
</defs>
</svg>
