<svg width="98" height="118" viewBox="0 0 98 118" fill="none" xmlns="http://www.w3.org/2000/svg">
<path d="M20.9196 16.5041C28.2789 15.8448 35.9956 18.761 41.1935 25.6504C38.9729 22.7094 41.8515 13.7928 43.3155 10.9604C45.79 6.16504 50.283 2.3623 55.4636 0.838731C63.6756 -1.57873 72.9943 1.4042 78.971 7.54292C84.9477 13.6816 87.6982 22.5786 87.1954 31.1397C86.8504 37.0265 85.0512 42.7479 82.3377 47.9582C81.7314 49.1212 74.4139 63.0654 74.7639 63.1148C79.2372 63.7396 83.4788 65.8656 86.9514 68.7498C90.9761 72.0933 96.1617 77.6566 97.1352 82.8866C97.4161 84.3904 98.0988 85.8276 97.9879 87.3981C97.1968 98.7594 94.6139 110.306 83.1116 115.677C73.1225 120.341 60.4988 117.929 54.0563 108.921C51.6163 105.51 50.5467 102.95 51.3132 98.9223C51.5695 97.5766 52.8733 96.6827 54.2633 96.8407C55.7371 97.0062 57.0335 97.7717 58.431 98.1198C67.518 100.392 79.5403 94.6406 83.4073 86.3338C84.0358 84.9855 84.4745 83.4793 84.159 82.0224C83.4344 78.6715 79.2766 77.2368 75.7719 77.1479C60.0995 76.7479 45.9699 80.4914 30.3418 75.8145C20.8752 72.9822 11.9509 67.5868 6.18371 59.5491C0.416519 51.5115 -1.81641 40.6712 1.6439 31.399C5.00809 22.386 12.7445 17.2399 20.9196 16.5065V16.5041Z" fill="#EC783E"/>
</svg>
