<svg width="214" height="251" viewBox="0 0 214 251" fill="none" xmlns="http://www.w3.org/2000/svg">
<path d="M29.6976 10.5295C29.0428 10.6325 28.3509 10.754 27.6591 10.9166C28.1079 10.8981 28.5568 10.8775 29.0057 10.8508C29.2363 10.7437 29.4669 10.6387 29.6976 10.5295Z" fill="#EC783E"/>
<path d="M35.6298 9.96104C35.6298 9.96104 35.6278 9.96104 35.6257 9.96104C35.3704 10.1505 35.1192 10.3461 34.8721 10.5458C35.2674 10.3543 35.6607 10.1587 36.0519 9.95898C35.9119 9.95898 35.7719 9.95898 35.6319 9.95898L35.6298 9.96104Z" fill="#EC783E"/>
<path d="M142.863 175.343C142.837 174.911 142.822 174.476 142.812 174.044C142.682 174.136 142.554 174.229 142.425 174.322C142.589 174.655 142.736 174.995 142.863 175.345V175.343Z" fill="#EC783E"/>
<path d="M197.079 178.617C199.484 188.826 198.611 200.295 189.114 206.952C177.621 215.009 160.732 206.332 152.761 196.929C147.912 191.208 138.399 171.167 138.399 171.167C138.399 171.167 145.569 147.284 148.925 132.205C152.038 118.22 152.965 103.135 154.26 88.8243C154.758 83.3121 155.209 77.7773 154.975 72.2486C154.417 59.1034 151.12 43.9629 144.424 32.6379C137.153 20.3369 126.024 10.4491 113.05 4.99253C92.9796 -3.44769 66.4379 -1.82924 50.5809 14.8103C44.5745 21.1152 40.8825 30.2143 42.4783 38.8955C43.8538 46.3658 48.7874 52.5328 53.5501 58.3394C59.3526 65.4145 65.1551 72.4875 70.9576 79.5625C72.537 81.4877 74.1451 83.4624 75.0037 85.8221C78.8336 96.3461 66.3123 106.95 57.5015 109.084C52.2755 110.348 45.9747 108.515 43.5676 103.569C41.5723 99.4698 42.6987 94.4888 44.5251 90.3068C46.3515 86.1248 48.8615 82.1714 49.6769 77.662C50.5356 72.9199 49.3948 67.9451 47.1525 63.7096C44.9163 59.4864 40.9093 53.8115 36.4184 51.9686C35.1274 51.4394 33.9702 50.5602 32.5474 50.3667C22.2498 48.9644 11.454 49.1312 4.51489 58.4321C-1.51001 66.5058 -1.70562 78.2529 5.14291 85.6945C7.73531 88.5113 9.82528 89.9444 13.5646 90.0062C14.8145 90.0268 15.8543 89.0261 15.9737 87.7536C16.0993 86.4028 15.6587 85.0994 15.6052 83.7857C15.2675 75.2302 22.6431 65.538 30.7827 63.619C32.1026 63.308 33.5316 63.1948 34.7753 63.7466C37.6333 65.0171 38.1419 69.0055 37.5695 72.1601C35.5804 83.1247 26.0921 91.5999 24.764 102.67C23.6418 112.014 28.981 121.407 36.7067 126.432C44.4345 131.454 54.1122 132.545 63.1413 131.12C83.2381 127.949 105.849 106.25 93.8774 83.9669C93.0661 82.4576 74.5281 60.3574 69.7592 52.2445C64.1194 42.6492 61.424 28.1285 70.9041 20.0939C78.461 13.6922 88.4105 13.3545 97.7093 14.4129C99.0004 14.5591 101.442 15.2509 102.526 15.9881C103.66 16.7602 104.646 18.2139 105.53 20.1969C107.204 23.9485 107.834 28.0955 108.318 32.1952C109.549 42.6368 109.947 53.1629 110.34 63.6746C111.093 83.7116 109.543 141.91 109.543 141.91C109.543 141.91 100.423 137.88 91.6288 137.219C82.0788 136.5 71.1224 139.214 63.722 141.943C58.3539 143.921 53.2453 146.689 48.74 150.288C33.3319 162.595 24.5725 187.325 28.8822 206.993C33.7272 229.114 49.9446 244.065 71.248 249.44C82.1179 252.182 93.9124 250.877 103.72 245.297C127.949 231.513 130.688 203.347 130.692 203.299C130.513 205.138 132.671 213.564 133.216 215.99C134.273 220.699 135.936 225.256 137.888 229.664C141.533 237.894 147.076 244.747 155.625 248.192C161.173 250.428 167.261 250.99 173.241 250.92C178.037 250.862 182.888 250.401 187.393 248.764C199.117 244.506 204.932 233.15 208.826 222.058C211.313 214.974 212.275 207.329 213.06 199.898C213.819 192.699 214.182 185.07 210.552 178.527C208.845 175.448 205.904 171.736 202.826 169.93C201.154 168.95 195.358 167.605 194.793 170.782C194.719 171.2 194.874 171.62 195.028 172.016C195.835 174.108 196.54 176.332 197.077 178.617H197.079ZM109.481 190.146C109.386 194.05 109.073 197.946 108.392 201.815C106.887 210.354 103.506 218.738 97.6084 224.932C94.0771 228.643 89.5842 231.538 84.6094 232.388C79.6346 233.239 74.1801 231.832 70.6735 228.095C66.1085 223.231 65.6452 215.763 65.7914 208.999C65.917 203.225 66.2959 197.458 66.9239 191.717C67.554 185.956 68.53 179.984 71.8122 175.277C75.362 170.189 81.2551 167.228 87.2533 166.186C93.4429 165.112 109.491 166.009 109.491 166.009C109.491 166.009 109.625 184.1 109.479 190.144L109.481 190.146Z" fill="#EC783E"/>
</svg>
