<svg width="54" height="40" viewBox="0 0 54 40" fill="none" xmlns="http://www.w3.org/2000/svg">
<path d="M51.5661 16.8667C49.8562 15.5869 47.942 16.1199 46.197 16.9041C45.956 17.0126 45.7975 17.2276 45.5971 17.3887C44.9 17.9484 44.4887 19.1591 44.314 20.0212C44.1386 20.8855 44.1967 21.8233 44.5953 22.6159C45.5194 24.4528 47.5613 25.5202 47.6117 27.8022C47.6357 28.8939 47.1322 29.9347 46.489 30.8172C45.0387 32.8078 42.9325 33.7056 40.5778 32.8471C40.2637 32.7987 39.9599 32.6558 39.7079 32.418C39.1527 31.8941 38.8987 31.2291 38.784 30.5239C38.6216 29.9158 38.5261 29.2866 38.4258 28.7672C38.1626 27.4062 38.1107 24.687 38.1107 24.687C38.1107 24.687 39.1657 24.1228 39.5068 23.9636C40.0639 23.7034 40.5605 23.313 40.9877 22.8644C41.1199 22.7257 41.2479 22.5831 41.3717 22.4369C44.171 19.1347 44.2181 14.8148 44.2493 10.7316C44.2539 10.1245 44.2558 9.51775 44.2548 8.91064C44.2513 6.78235 44.1571 4.64951 43.1875 2.71254C42.3702 1.07994 40.7236 -0.185275 38.785 0.174313C35.5991 0.764856 35.5289 4.73429 35.451 7.26797C35.4152 8.43346 35.5981 15.5248 35.7924 17.9049C35.8664 18.8138 35.9353 19.723 35.9986 20.6325C36.0743 21.7194 36.0863 22.8654 36.0863 22.8654C36.0863 22.8654 35.7576 23.1343 35.0066 23.1655C34.2033 23.1645 33.8177 22.9644 33.8177 22.9644C33.8177 22.9644 33.9142 21.6067 33.9801 20.8745C34.062 19.9663 34.1494 19.0587 34.2419 18.1518C34.4846 15.7763 34.812 8.69008 34.7997 7.52394C34.7734 4.98928 34.7841 1.0192 31.6108 0.363689C29.6797 -0.0352029 28.0078 1.19623 27.1574 2.81194C26.1485 4.72844 26.011 6.85933 25.9643 8.98698C25.951 9.59376 25.9402 10.2009 25.9328 10.8077C25.8808 14.8908 25.8402 19.2107 28.5717 22.5691C28.6925 22.7176 28.8176 22.8628 28.9469 23.0044C29.3646 23.4614 29.8531 23.862 30.405 24.1335C30.7429 24.2995 31.7859 24.8852 31.7859 24.8852C31.7859 24.8852 31.6784 27.6027 31.3876 28.9579C31.1336 30.1419 30.8968 31.9025 29.8337 32.6477C28.0205 33.9187 25.3562 32.5499 24.0988 31.0664C23.3338 30.164 21.8331 27.0024 21.8331 27.0024C21.8331 27.0024 22.9641 23.2347 23.4936 20.856C23.9848 18.6497 24.1309 16.27 24.3352 14.0124C24.4139 13.1429 24.485 12.2697 24.448 11.3975C24.3599 9.32383 23.8399 6.93534 22.7835 5.14877C21.6366 3.20823 19.8808 1.6484 17.8341 0.787594C14.668 -0.543888 10.4809 -0.288571 7.97936 2.33639C7.03183 3.33102 6.44941 4.76645 6.70115 6.13593C6.91814 7.31442 7.69643 8.28729 8.44777 9.20331C9.36314 10.3194 10.2785 11.4352 11.1939 12.5513C11.443 12.8551 11.6967 13.1666 11.8322 13.5388C12.4364 15.199 10.4611 16.8719 9.07112 17.2084C8.2467 17.4079 7.25271 17.1188 6.87299 16.3385C6.55823 15.6918 6.73591 14.906 7.02403 14.2463C7.31216 13.5866 7.70813 12.9629 7.83676 12.2515C7.97221 11.5034 7.79226 10.7186 7.43852 10.0505C7.08575 9.38424 6.45363 8.48901 5.74517 8.19829C5.54151 8.1148 5.35895 7.9761 5.13449 7.94557C3.51001 7.72436 1.80692 7.75067 0.712244 9.21793C-0.238211 10.4916 -0.26907 12.3448 0.811318 13.5187C1.22028 13.9631 1.54998 14.1891 2.13988 14.1989C2.33705 14.2021 2.50109 14.0443 2.51993 13.8435C2.53974 13.6304 2.47023 13.4248 2.46178 13.2176C2.40851 11.8679 3.57206 10.3389 4.85611 10.0362C5.06433 9.98713 5.28976 9.96926 5.48596 10.0563C5.93682 10.2567 6.01706 10.8859 5.92675 11.3836C5.61297 13.1133 4.11615 14.4503 3.90663 16.1966C3.7296 17.6707 4.57189 19.1526 5.79065 19.9451C7.00974 20.7374 8.53645 20.9096 9.96083 20.6848C13.1312 20.1845 16.6981 16.7615 14.8096 13.2462C14.6816 13.0081 11.7571 9.52165 11.0048 8.24181C10.1151 6.7281 9.68992 4.43739 11.1854 3.1699C12.3776 2.16 13.9472 2.10673 15.4141 2.2737C15.6178 2.29676 16.003 2.4059 16.1739 2.52219C16.3529 2.644 16.5084 2.87333 16.6478 3.18615C16.9119 3.77799 17.0113 4.4322 17.0876 5.07894C17.2819 6.72615 17.3446 8.38669 17.4066 10.0449C17.5255 13.2059 17.2809 22.3869 17.2809 22.3869C17.2809 22.3869 15.8422 21.7512 14.4549 21.6469C12.9483 21.5336 11.2199 21.9617 10.0524 22.3921C9.2056 22.7043 8.39969 23.1408 7.68896 23.7086C5.25825 25.6502 3.87642 29.5514 4.55629 32.6542C5.32062 36.1438 7.87899 38.5024 11.2397 39.3502C12.9545 39.7829 14.8151 39.577 16.3623 38.6967C20.1846 36.5222 20.6166 32.0789 20.6172 32.0714C20.589 32.3615 20.9294 33.6907 21.0155 34.0733C21.1821 34.8162 21.4446 35.5351 21.7525 36.2305C22.3275 37.5289 23.2019 38.6099 24.5506 39.1534C25.4257 39.5061 26.3862 39.5948 27.3295 39.5838C28.0861 39.5747 28.8514 39.5019 29.5621 39.2437C31.4117 38.5719 32.329 36.7805 32.9433 35.0306C33.9795 32.0789 33.8703 25.3289 33.8703 25.3289C33.8703 25.3289 34.5596 25.3942 34.9497 25.4101C35.3889 25.428 36.0012 25.2555 36.0012 25.2555C36.0012 25.2555 35.9298 32.3202 36.7461 34.8068C37.3246 36.5687 38.2052 38.3783 40.0408 39.0878C40.7464 39.3603 41.51 39.449 42.2662 39.4733C43.5607 39.5152 44.9133 39.2066 46.0112 38.468C46.5845 38.0824 47.0802 37.5874 47.4681 37.0153C47.9063 36.3699 48.4218 35.7992 48.833 35.1251C50.1499 32.967 51.1556 30.2822 50.7976 27.6771C50.6167 26.3593 50.0761 25.1233 49.2095 24.1134C48.3428 23.1035 47.0861 22.2856 46.4452 21.0129C46.1798 20.486 46.0616 19.7554 46.5001 19.3819C46.6908 19.2195 46.949 19.1649 47.1981 19.1513C48.7352 19.0658 50.5423 20.3921 50.9288 21.9204C50.9883 22.1553 50.9782 22.4087 51.0708 22.6403C51.1582 22.8589 51.394 22.9813 51.6136 22.9125C52.2707 22.7069 52.5647 22.3447 52.8755 21.7126C53.6967 20.0419 53.0506 17.978 51.5661 16.8667ZM17.2711 29.9961C17.2562 30.6119 17.2068 31.2265 17.0993 31.8369C16.8619 33.184 16.3285 34.5067 15.3982 35.4838C14.8411 36.0691 14.1323 36.5258 13.3475 36.66C12.5627 36.7941 11.7022 36.5723 11.1491 35.9827C10.4289 35.2154 10.3558 34.0373 10.3789 32.9702C10.3987 32.0594 10.4585 31.1495 10.5575 30.2439C10.6569 29.335 10.8109 28.393 11.3287 27.6505C11.8887 26.8478 12.8184 26.3807 13.7646 26.2163C14.741 26.0468 17.2728 26.1884 17.2728 26.1884C17.2728 26.1884 17.2942 29.0427 17.2711 29.9961ZM31.8889 21.6479C31.413 21.3435 30.7744 20.3392 30.4765 19.7548C29.9577 18.7368 29.7801 17.5729 29.6826 16.4276C29.503 14.3171 29.5692 12.1937 29.6355 10.0765C29.6586 9.33519 29.5189 6.80963 30.5967 6.74662C30.6597 6.72128 30.7263 6.70666 30.7942 6.70666C30.8224 6.70666 30.8497 6.70959 30.8764 6.71348C30.9251 6.70959 30.9693 6.72096 31.0018 6.74824C31.5913 7.24231 31.6098 8.17327 31.6219 8.91909C31.6862 12.8625 31.8885 16.8131 31.8885 20.7549L31.8889 21.6479ZM38.0922 20.5555C38.1724 16.6147 38.4553 12.6686 38.5999 8.72744C38.6272 7.98227 38.6645 7.05163 39.2641 6.56991C39.2973 6.54327 39.3418 6.53288 39.3902 6.53775C39.4171 6.53418 39.4444 6.5319 39.4727 6.53255C39.5403 6.53385 39.6068 6.54977 39.6692 6.57641C40.7454 6.66119 40.5544 9.1835 40.5625 9.92509C40.5856 12.0433 40.6086 14.1677 40.3861 16.2739C40.2653 17.4173 40.0642 18.5773 39.5247 19.5843C39.2151 20.1625 38.5563 21.1535 38.074 21.4481L38.0922 20.5555Z" fill="#EC783E"/>
</svg>
