<svg width="230" height="307" viewBox="0 0 230 307" fill="none" xmlns="http://www.w3.org/2000/svg">
<path d="M226.139 47.442C217.423 25.8635 197.246 11.1654 175.29 5.29137C147.131 -2.24378 112.248 -0.854845 83.7052 4.00513C49.2236 9.87664 20.3261 26.8339 6.60489 60.1169C0.36262 75.2591 -2.25461 92.4166 2.29598 108.165C12.0553 141.935 61.9986 158.544 82.0058 124.621C89.8858 111.263 91.0838 95.0713 91.3692 79.5414C91.4849 73.3284 91.4823 67.0718 90.4 60.9513C89.9295 58.289 89.2096 55.565 87.4742 53.4957C84.7747 50.2737 80.0904 49.3264 75.9666 50.076C71.8428 50.8257 68.1329 52.9925 64.5336 55.144C59.9007 57.9167 55.1239 60.8845 52.247 65.4647C46.2156 75.0614 54.0287 81.3488 59.5717 88.2935C62.9653 92.545 65.3846 97.7875 65.346 103.235C65.31 108.681 62.4794 114.262 57.61 116.657C53.5145 118.673 48.4857 118.218 44.4236 116.134C40.3615 114.046 37.1941 110.488 34.8674 106.545C29.6329 97.6643 28.44 86.6529 30.8567 76.6275C37.626 48.5356 65.9708 31.6194 92.2819 33.1059C104.599 33.8017 101.206 68.2477 100.871 78.4811C98.807 141.72 102.908 203.359 98.2671 266.451C97.9971 270.123 97.6886 273.912 95.9789 277.168C95.2102 278.634 94.0764 279.966 92.7318 280.942C89.8703 281.563 87.0449 281.773 84.5896 281.571C84.4379 281.476 84.2888 281.378 84.1448 281.27C84.0831 281.35 84.0188 281.429 83.9546 281.509C83.6512 281.473 83.3556 281.432 83.0676 281.386C77.5349 280.464 72.4059 275.997 72.393 270.048C72.3827 265.116 75.7327 260.608 79.3809 257.194C83.029 253.777 87.2197 250.875 90.0606 246.711C93.048 242.331 94.2487 236.883 94.0661 231.713C93.8836 226.558 92.6907 219.212 89.279 215.492C88.2995 214.422 87.6053 213.061 86.3456 212.273C77.2315 206.568 66.9272 202.222 56.088 208.614C46.6758 214.165 41.1071 225.823 44.1845 236.123C45.3492 240.021 46.6706 242.329 50.1877 243.951C51.3626 244.493 52.8075 243.931 53.5042 242.706C54.2421 241.41 54.422 239.923 54.9748 238.586C58.5767 229.893 70.0097 223.292 78.6019 224.776C79.9953 225.017 81.4016 225.5 82.3246 226.573C84.4508 229.038 83.1036 233.235 81.1162 236.149C74.2055 246.275 61.3276 250.778 54.9928 261.286C49.6452 270.156 50.3959 281.776 55.4144 290.025C60.4329 298.274 69.1022 303.411 78.3113 305.763C89.7649 308.687 102.882 306.266 112.878 300.176C126.159 292.086 129.067 279.162 130.144 264.688C131.26 249.692 132 220 132 220C133 199.5 134.3 184.5 135.5 178.5C136.7 172.5 135 162 154.255 157.25C176.082 149.969 196.118 140.123 210.757 121.713C227.301 100.909 235.322 73.2181 226.139 47.442ZM175.709 94.7144C174.056 105.88 169.243 116.195 159.775 124.318C154.185 129.112 152.504 131.43 145.904 134.785C142.49 136.303 133.821 138.593 133.51 132.819C133.373 131.237 133.445 129.348 133.512 127.679C134.638 106.311 134.875 84.902 136.361 63.5469C136.723 58.3403 135.682 46.0864 139.12 41.6706C146.532 32.1483 165.685 47.7398 169.866 54.5715C172.267 58.4944 173.565 62.9898 174.483 67.4929C176.355 76.6583 177.005 85.9495 175.707 94.7118L175.709 94.7144Z" fill="#EC783E"/>
</svg>
